<?xml version="1.0" encoding="UTF-8"?><svg id="Capa_2" xmlns="http://www.w3.org/2000/svg" viewBox="0 0 350 350"><defs><style>.cls-1{fill:#fff;}.cls-2{fill:#999;}</style></defs><g id="dummy-Act-Contenidos"><circle class="cls-1" cx="175" cy="175" r="175"/><path class="cls-2" d="M121.81,211.95h70.92v-18.47h-70.92v18.47ZM121.81,175h106.38v-18.47h-106.38v18.47ZM104.08,248.9c-4.88,0-9.05-1.81-12.52-5.43-3.47-3.62-5.21-7.97-5.21-13.05v-110.85c0-5.08,1.74-9.43,5.21-13.05s7.65-5.43,12.52-5.43h53.19l17.73,18.47h70.92c4.88,0,9.05,1.81,12.52,5.43,3.47,3.62,5.21,7.97,5.21,13.05v92.37c0,5.08-1.74,9.43-5.21,13.05-3.47,3.62-7.65,5.43-12.52,5.43H104.08ZM104.08,230.42h141.84v-92.37h-78.24l-17.73-18.47h-45.88v110.85ZM104.08,230.42v-110.85,110.85Z"/></g></svg>