<?xml version="1.0" encoding="UTF-8"?><svg id="Illustration" xmlns="http://www.w3.org/2000/svg" viewBox="0 0 1920 1080"><defs><style>.cls-1{opacity:.03;}.cls-2{fill:#164194;stroke-width:0px;}</style></defs><g class="cls-1"><path class="cls-2" d="M1543.5,176.97c13.33-5.79,22.99-17.96,25.5-32.26,3.48-15.07-4.06-24.34-14.68-21.44-13.14,5.99-22.6,17.96-25.5,32.26-3.48,15.07,3.67,24.53,14.68,21.63v-.19Z"/><path class="cls-2" d="M605.7,424.61c13.33-5.79,22.99-17.96,25.5-32.26,3.48-15.07-4.06-24.53-14.68-21.44-13.14,5.99-22.6,17.96-25.5,32.26-3.48,14.87,4.06,24.34,14.68,21.44Z"/><path class="cls-2" d="M575.18,595.21c-9.46,12.75-15.84,12.75-15.84,12.75-8.89-2.12,0-22.6,0-22.6l48.68-119.37c0-2.32-3.09,0-3.09,0-2.12,1.55-4.44,2.7-6.76,3.48-9.85,3.28-20.09,5.99-30.33,8.11l-6.18,15.26-18.16,44.04-11.2,27.43c-6.95,15.84-12.75,34.77-12.75,34.77-3.09,9.66-3.48,19.9-1.35,29.75,1.35,7.92,8.69,13.52,16.61,12.75,12.17-.97,23.37-7.15,30.91-16.61,5.41-5.41,10.43-11.01,15.07-17,0,0,17.19-24.15,24.53-36.89,0,0,21.83-39.02,31.1-55.05,7.73-13.14,16.23-25.88,25.5-38.25,0,0,9.27-12.75,12.75-12.75,0,0,4.25-.97,3.09,4.83-4.25,14.68-9.85,28.97-16.61,42.69-9.66,22.21-16.03,45.59-18.93,69.73,0,0-2.51,30.91,20.28,25.5,7.73-1.74,14.87-4.83,21.44-9.08,9.85-6.57,18.54-15.07,25.5-24.53,21.44-27.62,38.63-58.14,51-90.98,11.01,0,21.63-3.28,30.91-9.08,2.9-1.74.97.77.97.77-18.54,47.9-10.43,76.49-10.43,76.49,0,0,3.28,20.48,22.41,17.77,0,0,17.19-.58,37.28-25.5,10.62-12.17,19.7-25.5,27.43-39.79,0,0,2.9-3.28,1.74,0-3.28,10.24-4.06,21.05-2.51,31.49.77,7.53,7.15,13.14,14.68,12.75,0,0,11.01,1.74,27.43-14.29,14.49-14.87,26.85-31.87,36.7-50.22,0,0,2.51-5.02,2.12-.77-.77,8.31-.19,16.81,1.74,24.92,0,0,5.22,19.7,21.25,17.77,0,0,17.19-.58,37.28-25.5,10.24-12.36,19.51-25.69,27.43-39.79,0,0,2.9-3.28,1.74,0-3.28,10.24-4.06,21.05-2.51,31.49.77,7.53,7.15,13.14,14.68,12.75,0,0,11.01,1.16,27.43-14.68,14.1-15.07,26.46-31.68,36.51-49.45,0,0,1.74-3.28,1.55,0-.39,7.53.39,15.07,2.12,22.41,0,0,5.79,19.7,21.83,18.16,0,0,17.19-.77,37.28-25.5,5.22-5.99,10.24-12.56,14.68-19.12,4.64-6.76,8.89-13.71,12.75-20.67,0,0,2.9-3.28,1.74,0-3.28,10.24-4.06,21.05-2.51,31.49.77,7.53,7.15,13.14,14.68,12.75,0,0,11.01,1.74,27.43-14.29,15.26-16.61,28.39-34.96,39.02-54.67,0,0,21.44-38.25,30.91-55.05,7.73-13.14,16.23-25.88,25.5-38.25,0,0,9.27-12.75,12.75-12.75,0,0,4.25-.97,3.09,4.83-4.25,15.26-9.85,29.94-17,44.04-9.66,22.21-16.03,45.59-18.93,69.73,0,0-1.74,30.33,20.28,25.5,7.73-1.16,15.07-4.25,21.44-9.08,9.66-6.95,18.16-15.07,25.5-24.53,21.44-27.43,38.63-58.14,51-90.79,15.07,0,29.55-5.41,40.76-15.65,0,0,3.48-3.28,2.51,0l-10.82,25.5c-6.95,15.84-12.75,34.96-12.75,34.96-3.67,10.04-4.44,20.86-2.51,31.49,1.35,7.92,8.69,13.52,16.61,12.75,12.56-1.16,24.15-7.34,32.26-17.19,15.26-15.65,28.2-33.61,38.25-53.31,0,0,1.74-3.48,1.35.97-1.55,8.5-.77,17.19,2.12,25.5,0,0,5.41,19.9,21.63,17.96,0,0,17.19-.77,37.09-25.5,5.02-5.6,9.85-11.59,14.29-17.77,4.64-6.95,8.89-14.1,12.75-21.44,0,0,2.9-3.28,1.74,0-3.28,9.85-3.86,20.48-2.12,30.91,1.35,7.92,7.34,14.1,15.26,15.45,0,0,19.32,5.02,51-24.72,7.73-6.95,14.49-15.07,20.28-23.76,13.52-18.16,23.95-38.44,31.29-59.88,1.35-5.41,1.55-11.01.58-16.61-4.25-9.85-6.57,0-6.57,0-5.02,12.75-5.99,18.74-11.2,30.33-7.73,17-17.38,33.03-29.36,47.32-25.5,29.36-35.54,16.03-35.54,16.03-7.15-6.95-1.35-22.21-1.35-22.21l49.84-121.69c0-2.32-3.09,0-3.09,0-2.12,1.55-4.44,2.7-6.76,3.48-9.27,3.28-18.93,5.79-28.59,7.53l-8.11,19.7c-2.12,4.83-2.9-1.35-2.9-1.35-1.35-6.37-6.37-11.4-12.75-12.75-5.41-1.16-11.01-1.16-16.23,0-14.87,3.86-28.39,11.59-39.41,22.21-18.16,17.58-32.64,38.83-42.3,62.2,0,0-7.34,16.61-12.75,27.43-9.27,16.61-19.7,32.45-31.1,47.52-9.27,11.01-14.68,10.43-14.68,10.43-8.89-2.12.58-22.6.58-22.6l48.68-119.37c0-2.32-3.09,0-3.09,0-2.12,1.55-4.44,2.7-6.76,3.48-9.85,3.28-20.09,5.99-30.33,8.11l-6.18,15.26c-5.99,14.87-16.23,27.43-29.75,36.12-7.15,5.79-16.23,9.08-25.5,9.08,5.79-15.65,10.43-31.49,14.1-47.71,2.9-14.68-6.37-12.75-6.37-12.75-6.57,1.74-12.36,5.02-17.38,9.66-13.14,10.43-21.25,26.08-22.02,42.88-.58,8.31,3.67,16.23,10.82,20.48-9.66,29.75-24.15,57.56-43.08,82.48-11.98,15.65-19.7,14.29-19.7,14.29-6.18,0-3.86-12.75-3.86-12.75,3.67-17,9.08-33.42,16.03-49.26,8.89-19.9,14.87-40.76,17.77-62.2,1.74-21.44-16.23-17.77-16.23-17.77-9.66,2.12-18.54,6.95-25.5,14.1-12.36,11.4-23.37,24.15-32.64,38.25-11.4,16.81-35.93,61.23-35.93,61.23-8.89,17-19.12,33.42-30.91,48.68-8.69,10.43-14.1,8.89-14.1,8.89-8.5-2.12,1.35-22.6,1.35-22.6l48.68-119.37c1.35-2.32-3.09,0-3.09,0-2.12,1.55-4.44,2.7-6.76,3.48-9.27,3.28-18.93,5.79-28.59,7.53l-8.11,19.32c-2.12,4.83-2.9-1.35-2.9-1.35-1.35-6.37-6.37-11.4-12.75-12.75-5.41-1.16-11.01-1.16-16.23,0-14.87,3.86-28.39,11.59-39.41,22.21-17.77,17.19-31.87,37.86-41.53,60.65l-.77,2.12s-5.99,14.1-12.75,27.24c-4.83,10.04-10.04,19.7-15.84,28.97-4.25,6.95-9.08,13.52-14.29,19.7-8.69,10.43-14.1,8.89-14.1,8.89-8.89-2.12.58-22.6.58-22.6l48.68-119.37c0-1.35,6.37-16.23,6.37-16.23,8.69-20.09,15.45-40.95,20.28-62.2,5.02-15.45.77-32.45-11.2-43.46-18.93-17-61.81,0-61.81,0-29.75,11.78-54.86,33.22-71.08,60.65-18.16,33.8,0,49.84,0,49.84,6.95,6.95,27.43,10.62,54.28-15.45,23.95-22.99,21.83-40.56,21.83-40.56-2.32-10.24-5.02-1.55-5.02-1.55-4.44,14.49-13.33,27.24-25.5,36.51-15.07,11.2-25.5,5.79-25.5,5.79-16.61-12.75,5.6-48.68,5.6-48.68,14.68-21.05,36.51-36.12,61.43-42.3,23.57-6.95,32.84,5.02,33.8,15.45,0,6.57-1.16,13.14-3.48,19.32-1.55,4.25-4.64,11.78-11.78,29.17-11.4,29.17-27.04,65.1-27.04,65.1l-7.73,19.32c-2.12,4.83-2.9-1.35-2.9-1.35-1.35-6.37-6.37-11.4-12.75-12.75-5.41-1.16-11.01-1.16-16.23,0-14.87,3.86-28.39,11.59-39.41,22.21-18.35,17.77-32.64,39.21-42.3,62.78-1.93,5.79-12.75,27.24-12.75,27.24-7.92,17.38-18.16,33.61-30.71,48.1-8.69,10.43-14.29,9.08-14.29,9.08-8.89-2.12,0-22.6,0-22.6l48.68-119.37c0-2.32-3.09,0-3.09,0-2.12,1.55-4.44,2.7-6.76,3.48-9.27,3.28-18.93,5.79-28.59,7.53l-7.34,20.09c-2.12,4.83-2.9-1.35-2.9-1.35-1.35-6.37-6.37-11.4-12.75-12.75-5.41-1.16-11.01-1.16-16.23,0-14.87,3.86-28.39,11.59-39.41,22.21-8.69,8.31-16.42,17.38-23.18,27.24-4.44,6.57-9.85,12.17-16.23,17-7.92,6.57-17.77,10.62-28.2,11.01,5.79-15.45,10.62-31.29,14.49-47.52,2.9-14.68-6.37-12.75-6.37-12.75-6.57,1.74-12.36,5.02-17.38,9.66-13.14,10.43-21.25,26.08-22.02,42.88-.39,8.31,3.67,16.23,10.82,20.48-9.66,29.75-24.15,57.76-43.08,82.67-11.78,15.65-19.7,14.29-19.7,14.29-6.18,0-3.86-12.75-3.86-12.75,3.67-17,9.08-33.42,16.03-49.26,8.89-19.9,14.87-40.76,17.77-62.2,1.74-21.44-16.23-17.77-16.23-17.77-9.66,2.12-18.54,6.95-25.5,14.1-12.56,11.2-23.57,23.95-32.64,38.25-10.62,18.54-35.35,61.23-35.35,61.23-8.31,15.65-17.96,30.91-28.59,45.2l1.35-.77ZM1586.77,296.39c5.6-18.93,12.75-37.28,21.44-55.05,6.37-13.14,15.26-24.72,26.08-34.19,0,0,7.73-7.15,13.52-6.95,0,0,11.01-2.51,10.82,15.84-.58,13.91-3.86,27.43-9.85,39.98-7.92,16.81-17,33.03-27.04,48.48-5.02,7.53-10.82,14.49-17.38,20.48-12.75,9.47-17.77,3.86-17.77,3.86-6.95-8.11.58-32.26.58-32.26l-.39-.19ZM1156.98,409.78c5.6-18.93,12.75-37.47,21.44-55.44,6.37-13.14,15.26-24.72,26.08-34.19,0,0,7.73-7.15,13.52-6.95,0,0,11.01-2.51,10.82,15.84-.58,13.91-3.86,27.43-9.85,39.98-7.73,17-16.61,33.42-26.66,49.06-5.02,7.53-10.82,14.49-17.58,20.48-12.75,9.46-17.77,3.86-17.77,3.86-7.34-8.31.19-32.64.19-32.64h-.19ZM989.13,454.01c5.6-18.93,12.75-37.28,21.25-55.05,6.37-13.14,15.26-24.72,26.08-34.19,0,0,7.73-7.15,13.52-6.95,0,0,11.01-2.51,10.82,15.84-.58,13.91-3.86,27.43-9.85,39.98-7.73,16.81-16.61,32.84-26.66,48.29-5.02,7.53-10.82,14.49-17.38,20.48-12.75,9.46-17.77,3.86-17.77,3.86-7.34-8.11.19-32.26.19-32.26h-.19ZM820.88,498.63c5.6-18.93,12.75-37.28,21.44-55.05,6.37-13.14,15.26-24.72,26.08-34.19,0,0,7.73-7.15,13.52-6.95,0,0,11.01-2.51,10.82,15.84-.39,13.71-3.67,27.43-9.66,39.79-7.73,16.81-16.61,33.03-26.66,48.48-5.02,7.53-10.82,14.49-17.38,20.48-12.75,9.46-17.77,3.86-17.77,3.86-7.73-8.11,0-32.26,0-32.26h-.39Z"/><path class="cls-2" d="M1832.86,361.87c-5.41-14.68-16.42-26.46-30.52-32.84-21.44-8.31-45.39-8.69-67.03-1.16-24.34,8.5-45.97,23.37-62.58,43.08-17.19,18.54-25.69,43.46-23.57,68.77,0,0,.97,12.75,6.37,12.75,0,0,3.86-.97,3.28-6.57-3.86-24.34,3.86-49.26,21.05-67.03,18.16-20.67,43.08-34.58,70.31-39.02,0,0,44.62-9.47,64.52,28.59,6.57,13.52,7.92,28.78,3.86,43.08-5.41,16.23-14.49,30.91-26.85,42.69-14.68,15.07-31.49,28.01-49.84,38.25-38.05,20.28-78.04,36.51-119.37,48.29,1.35-8.11.39-16.42-2.7-23.95-21.44-61.62-162.06-44.23-162.06-44.23-140.04,7.73-283.37,74.56-283.37,74.56-54.47,22.6-118.99,55.63-175.78,86.54-89.05,6.76-173.27,15.65-239.33,23.37-22.99-46.94-96.2-30.33-96.2-30.33-27.24,4.64-52.35,17.38-72.44,36.51-5.6,5.41-10.62,11.4-14.49,18.16-21.83,3.86-42.88,8.11-62.58,12.75-.58-5.02-.77-8.11-.77-8.11-3.09-71.86-20.28-96.39-20.28-96.39-9.46-19.9-25.3-35.93-45.2-45.39-5.02-1.74,0-2.9,0-2.9,28.39-13.71,54.28-31.87,77.07-53.7,37.86-34,63.55-79.39,73.6-129.42,9.08-51-14.68-75.33-14.68-75.33-18.54-16.42-41.34,1.55-41.34,1.55-43.46,32.26-90.79,119.76-90.79,119.76-23.18,41.34-44.04,83.83-62.58,127.29l-3.67,8.89c-4.44,1.55-8.69,3.28-12.75,5.41,0,0-12.17,5.99-11.59,13.52,0,0,1.35,5.6,14.87,4.83-22.21,54.67-44.62,113-44.62,113-13.71,32.45-29.55,63.74-36.12,76.49-14.29,5.22-27.62,10.62-39.98,15.84,11.01-36.51,24.34-72.05,40.18-106.82,19.9-46.36,42.11-91.75,66.64-135.99,22.6-41.92,44.62-92.33,44.62-92.33,12.75-28.2,23.37-57.18,31.87-86.92,1.35-4.06,1.35-8.5,0-12.75-3.67-1.35-6.95,4.64-6.95,4.64-35.54,42.11-76.88,79.2-122.66,110.1-30.13,19.12-64.13,31.29-99.48,35.35-40.18,2.9-46.17-19.12-46.17-19.12-5.02-12.36-4.64-26.27,1.16-38.25,14.49-37.09,61.04-64.9,61.04-64.9,32.45-23.18,71.08-35.93,110.88-36.7,9.66-.39,19.51,1.16,28.59,4.44,2.32,1.16,5.02.77,6.95-.97,0,0,3.67-3.86-6.57-8.11-8.31-2.9-16.81-4.64-25.5-5.02-32.07-1.16-63.74,5.22-92.91,18.35-32.64,11.59-62.2,30.13-86.92,54.47-31.87,31.68-33.42,58.53-27.04,75.14,0,0,7.92,33.03,66.25,32.26,31.87-1.35,62.97-9.85,91.37-24.53,36.51-17.77,69.54-42.11,97.16-71.86,0,0,6.37-6.76,2.9,1.35,0,0-19.32,44.23-51,100.44-25.88,43.08-48.87,88.08-68.57,134.25-20.48,46.36-34.58,95.42-41.72,145.84-27.62,12.36-54.28,26.46-79.78,42.3,0,0-76.49,46.17-66.83,84.99,0,0-1.55,50.03,127.29,48.1,107.01-5.99,212.87-27.43,313.7-63.74,116.67-41.14,228.7-94.07,334.94-157.62,0,0,68.19-43.27,147.58-89.05l50.03-3.48s246.86-14.1,424.77-53.89c0,0,51-10.24,111.65-28.01-5.79,11.59-13.52,21.83-22.99,30.52-23.95,20.67-50.8,37.47-79.78,50.03l2.7-1.35s-120.92,55.63-235.47,47.71c-10.04-.77-20.28-2.12-30.13-3.86-14.68-2.9-28.59-8.69-41.14-16.61,0,0-6.18-6.95-7.34,0,.39,5.02,3.28,9.46,7.53,11.98,18.16,12.17,39.41,18.74,61.04,19.12,36.51,3.09,73.21.97,109.14-6.18,67.8-11.59,132.9-34.96,192.58-68.96,34.77-21.25,55.63-41.34,65.48-58.53,2.32-4.06,4.25-8.31,5.79-12.75,42.69-12.56,84.03-29.17,123.24-50.03,20.86-11.2,39.98-24.92,57.37-41.14,15.45-14.1,27.43-31.49,34.96-51,5.22-15.84,4.44-32.84-1.93-48.29l-.39-.19ZM610.53,661.86c15.26-12.94,33.8-21.44,53.51-24.92,0,0,53.7-12.75,74.37,21.44-72.63,8.69-118.99,15.65-118.99,15.65l-25.5,4.06c4.83-5.99,10.04-11.4,16.03-16.23h.58ZM569.77,695.47c-3.28,9.66-3.86,20.09-1.93,30.13,0,0,1.74,8.5,5.22,10.43,0,0,6.37,5.02,3.48-8.5-.97-11.98,1.55-23.95,7.34-34.58l19.7-3.09s46.55-8.5,140.04-19.32c7.92,24.15.77,50.61-17.96,67.61-22.99,21.44-51.19,36.51-81.9,43.85-71.86,17.77-104.11-20.28-104.11-20.28-12.17-16.42-20.48-35.35-24.34-55.44,17-4.06,35.16-7.53,54.28-10.82h.19ZM405.39,530.89c17.96-43.65,38.63-86.15,62.01-127.29,0,0,49.84-89.05,76.49-88.28,0,0,12.75-1.74,16.23,20.67,2.7,40.37-7.73,80.74-29.94,114.55,0,0-41.72,69.54-105.47,86.92-7.34-1.16-14.68-1.16-21.83,0l2.51-6.37v-.19ZM345.89,679.63s28.2-68.57,47.71-118.22l3.67-.97s15.84-5.02,25.5-9.08c0,0,22.21-9.08,38.25,21.25,0,0,10.62,16.61,7.73,59.3-1.35,23.76,0,47.52,3.86,70.89-85.57,19.9-140.62,38.83-140.62,38.83l-19.51,6.57c12.56-22.02,23.76-45.01,33.42-68.57h0ZM284.66,771.38c-25.5,41.72-32.84,38.25-32.84,38.25-5.02,0-2.12-19.51-2.12-19.51,0,0,0-3.28.97-5.02,12.56-5.41,23.95-10.62,34-13.71ZM853.72,714.78c-106.43,64.13-218.85,117.83-335.72,160.13-253.24,88.28-375.51,63.74-375.51,63.74-48.87-7.15-47.13-35.35-47.13-35.35-3.09-20.09,25.5-43.85,25.5-43.85,32.45-25.69,67.99-47.13,106.05-63.74-.39,6.57-.39,13.33,0,19.9,0,0,2.12,13.71,8.11,15.65,0,0,12.75,7.53,38.25-24.72,10.62-13.14,20.48-27.04,29.17-41.53,10.82-3.86,17.38-5.79,17.38-5.79,50.8-18.74,102.96-33.8,155.88-44.81.77,2.51,1.55,5.02,2.32,7.34,0,0,27.24,99.29,157.43,73.02,28.01-4.44,54.86-15.45,77.84-31.87,55.82-39.41,53.7-78.42,49.84-94.26,54.09-6.18,122.08-12.75,203.79-18.93-64.71,36.12-113.19,65.29-113.19,65.29v-.19ZM1464.89,579.18c-132.12,24.15-265.6,40.37-399.65,48.68l-30.91,2.12c44.43-25.5,90.21-49.06,128.26-65.68,0,0,161.48-75.53,301.14-80.16,0,0,118.22-8.89,130.58,38.25,3.28,7.92,4.06,16.61,1.93,24.92-69.73,20.28-131.35,32.07-131.35,32.07h.19l-.19-.19Z"/></g></svg>