<?xml version="1.0" encoding="UTF-8"?><svg id="Capa_2" xmlns="http://www.w3.org/2000/svg" viewBox="0 0 350 350"><defs><style>.cls-1{fill:#fff;}.cls-2{fill:#999;}</style></defs><g id="dummy-Act-Exposición"><circle class="cls-1" cx="175" cy="175" r="175"/><path class="cls-2" d="M221.93,153.34c-4.99,0-9.27-1.74-12.82-5.22-3.56-3.48-5.33-7.79-5.33-12.93v-36.31c0-5.14,1.78-9.46,5.33-12.93,3.56-3.48,7.83-5.22,12.82-5.22s9.46,1.74,12.93,5.22c3.48,3.48,5.22,7.79,5.22,12.93v36.31c0,5.14-1.74,9.46-5.22,12.93-3.48,3.48-7.79,5.22-12.93,5.22ZM113,262.26c-4.99,0-9.27-1.78-12.82-5.33-3.56-3.56-5.33-7.83-5.33-12.82V98.88c0-4.99,1.78-9.27,5.33-12.82,3.56-3.56,7.83-5.33,12.82-5.33h72.62v18.15h-72.62v145.23h99.85v-18.15h18.15v18.15c0,4.99-1.78,9.27-5.33,12.82-3.56,3.56-7.83,5.33-12.82,5.33h-99.85ZM131.16,225.96v-18.15h63.54v18.15h-63.54ZM131.16,198.72v-18.15h45.38v18.15h-45.38ZM231,207.8h-18.15v-23.6c-11.65-2.12-21.37-7.75-29.16-16.91-7.79-9.15-11.69-19.86-11.69-32.11h18.15c0,8.77,3.1,16.26,9.3,22.47,6.2,6.2,13.69,9.3,22.47,9.3s16.45-3.1,22.58-9.3c6.13-6.2,9.19-13.69,9.19-22.47h18.15c0,12.25-3.86,22.96-11.57,32.11-7.72,9.15-17.47,14.79-29.27,16.91v23.6Z"/></g></svg>