<?xml version="1.0" encoding="UTF-8"?><svg id="Layer_1" xmlns="http://www.w3.org/2000/svg" viewBox="0 0 1047.13 488.56"><defs><style>.cls-1{fill:#fff;stroke-width:0px;}</style></defs><path class="cls-1" d="M294.79,272.69c-5.68,7.58-9.4,7.58-9.4,7.58-5.31-1.21,0-13.49,0-13.49l28.96-71.1c0-1.36-1.82,0-1.82,0-1.25.87-2.6,1.58-4.02,2.12-5.9,2-11.93,3.59-18.04,4.78l-3.71,9.1-10.76,26.23-6.67,16.3c-4.09,9.47-7.58,20.69-7.58,20.69-1.85,5.71-2.11,11.81-.76,17.66.81,4.74,5.14,8.05,9.93,7.58,7.25-.62,13.92-4.21,18.42-9.93,3.22-3.16,6.23-6.53,9.02-10.08,0,0,10.23-14.33,14.63-21.91,0,0,13.04-23.19,18.57-32.82,4.6-7.87,9.66-15.46,15.16-22.74,0,0,5.53-7.58,7.58-7.58,0,0,2.5-.53,1.82,2.88-2.48,8.76-5.81,17.27-9.93,25.39-5.77,13.19-9.55,27.16-11.22,41.46,0,0-1.52,18.42,12.13,15.16,4.56-.99,8.88-2.84,12.73-5.46,5.86-3.97,10.99-8.92,15.16-14.63,12.8-16.39,23.02-34.64,30.32-54.12,6.52-.11,12.89-2,18.42-5.46,1.67-.99.61.45.61.45-10.99,28.5-6.22,45.48-6.22,45.48,0,0,1.97,12.2,13.34,10.61,0,0,10.23-.38,22.21-15.16,6.3-7.27,11.77-15.23,16.3-23.73,0,0,1.74-1.97.99,0-1.96,6.06-2.46,12.51-1.44,18.8.44,4.47,4.31,7.8,8.79,7.58,0,0,6.59.99,16.37-8.57,8.63-8.89,15.98-18.94,21.83-29.86,0,0,1.44-2.96,1.29-.45-.48,4.98-.12,10,1.06,14.86,0,0,3.11,11.67,12.66,10.54,0,0,10.23-.38,22.21-15.16,6.13-7.41,11.58-15.35,16.3-23.73,0,0,1.74-1.97.99,0-1.96,6.06-2.46,12.51-1.44,18.8.44,4.47,4.31,7.8,8.79,7.58,0,0,6.59.68,16.3-8.79,8.41-8.92,15.71-18.82,21.75-29.49,0,0,.99-1.97.91,0-.23,4.49.2,8.98,1.29,13.34,0,0,3.49,11.75,12.96,10.76,0,0,10.23-.45,22.21-15.16,3.14-3.62,6.08-7.42,8.79-11.37,2.74-3.99,5.27-8.11,7.58-12.36,0,0,1.74-1.97.99,0-1.97,6.06-2.46,12.51-1.44,18.8.44,4.47,4.31,7.8,8.79,7.58,0,0,6.59.99,16.37-8.57,9.07-9.83,16.89-20.76,23.27-32.52,0,0,12.81-22.74,18.34-32.75,4.6-7.87,9.67-15.46,15.16-22.74,0,0,5.53-7.58,7.58-7.58,0,0,2.5-.53,1.82,2.88-2.48,9.05-5.86,17.84-10.08,26.23-5.78,13.19-9.56,27.16-11.22,41.46,0,0-.99,18.04,12.13,15.16,4.62-.72,9-2.57,12.73-5.38,5.76-4.09,10.87-9.02,15.16-14.63,12.8-16.37,23.02-34.59,30.32-54.04,8.97.06,17.63-3.27,24.26-9.32,0,0,2.05-1.97,1.52,0l-6.44,15.16c-4.09,9.47-7.58,20.77-7.58,20.77-2.2,5.99-2.7,12.47-1.44,18.72.78,4.76,5.13,8.08,9.93,7.58,7.49-.74,14.39-4.42,19.18-10.23,9.12-9.37,16.78-20.05,22.74-31.68,0,0,1.06-2.12.76.53-.87,5.08-.45,10.29,1.21,15.16,0,0,3.26,11.9,12.89,10.69,0,0,10.23-.45,22.13-15.16,3.02-3.36,5.85-6.87,8.49-10.54,2.74-4.14,5.27-8.42,7.58-12.81,0,0,1.74-1.97.99,0-1.91,5.92-2.35,12.21-1.29,18.34.78,4.69,4.42,8.39,9.1,9.25,0,0,11.52,3.03,30.32-14.71,4.61-4.19,8.66-8.95,12.05-14.17,7.99-10.86,14.28-22.87,18.65-35.63.79-3.23.92-6.58.38-9.85-2.5-5.91-3.94,0-3.94,0-2.96,7.58-3.56,11.14-6.67,18.04-4.54,10.13-10.41,19.61-17.43,28.2-15.16,17.51-21.15,9.55-21.15,9.55-4.24-4.09-.83-13.19-.83-13.19l29.64-72.46c0-1.36-1.82,0-1.82,0-1.24.88-2.59,1.59-4.02,2.12-5.57,1.9-11.27,3.4-17.05,4.47l-4.78,11.67c-1.21,2.88-1.67-.76-1.67-.76-.83-3.79-3.79-6.75-7.58-7.58-3.19-.74-6.51-.74-9.7,0-8.86,2.3-16.96,6.87-23.5,13.26-10.84,10.47-19.4,23.07-25.17,36.99,0,0-4.32,9.93-7.58,16.3-5.49,9.86-11.7,19.31-18.57,28.27-5.53,6.59-8.79,6.22-8.79,6.22-5.31-1.21.38-13.49.38-13.49l28.96-71.1c0-1.36-1.82,0-1.82,0-1.24.87-2.59,1.59-4.02,2.12-5.9,2-11.92,3.6-18.04,4.78l-3.71,9.1c-3.52,8.83-9.69,16.35-17.66,21.53-4.3,3.47-9.64,5.39-15.16,5.46,3.42-9.26,6.23-18.73,8.41-28.35,1.67-8.72-3.79-7.58-3.79-7.58-3.87,1.02-7.41,3-10.31,5.76-7.84,6.24-12.61,15.54-13.11,25.54-.3,4.95,2.18,9.66,6.44,12.2-5.72,17.71-14.41,34.32-25.7,49.12-7.13,9.32-11.75,8.49-11.75,8.49-3.64,0-2.27-7.58-2.27-7.58,2.16-10.08,5.36-19.91,9.55-29.33,5.24-11.8,8.81-24.28,10.61-37.07.99-12.81-9.7-10.61-9.7-10.61-5.76,1.25-11.02,4.15-15.16,8.34-7.38,6.75-13.9,14.39-19.4,22.74-6.75,10.01-21.38,36.46-21.38,36.46-5.28,10.16-11.42,19.84-18.34,28.96-5.23,6.22-8.34,5.31-8.34,5.31-5-1.21.76-13.49.76-13.49l29.03-71.1c.83-1.36-1.82,0-1.82,0-1.24.88-2.59,1.59-4.02,2.12-5.57,1.91-11.27,3.4-17.05,4.47l-4.85,11.45c-1.21,2.88-1.67-.76-1.67-.76-.81-3.8-3.78-6.77-7.58-7.58-3.19-.73-6.51-.73-9.7,0-8.85,2.3-16.95,6.87-23.5,13.26-10.59,10.26-19,22.56-24.71,36.16l-.45,1.21s-3.56,8.41-7.58,16.22c-2.83,5.94-5.99,11.71-9.47,17.28-2.58,4.11-5.44,8.03-8.57,11.75-5.15,6.22-8.34,5.31-8.34,5.31-5.31-1.21.38-13.49.38-13.49l29.03-71.1c0-.76,3.79-9.7,3.79-9.7,5.19-11.94,9.23-24.35,12.05-37.07,3.02-9.2.41-19.32-6.67-25.92-11.29-10.16-36.76,0-36.76,0-17.72,7.05-32.62,19.76-42.37,36.16-10.84,20.09,0,29.71,0,29.71,4.17,4.09,16.3,6.37,32.37-9.17,14.25-13.64,12.96-24.1,12.96-24.1-1.36-6.06-3.03-.91-3.03-.91-2.68,8.65-7.98,16.25-15.16,21.75-8.94,6.67-15.16,3.49-15.16,3.49-9.93-7.58,3.34-29.03,3.34-29.03,8.78-12.52,21.78-21.45,36.61-25.17,14.02-4.17,19.56,3.03,20.16,9.17.05,3.94-.64,7.84-2.05,11.52-.91,2.5-2.73,7.05-6.97,17.36-6.82,17.36-16.15,38.81-16.15,38.81l-4.62,11.45c-1.21,2.88-1.67-.76-1.67-.76-.81-3.8-3.78-6.77-7.58-7.58-3.19-.74-6.51-.74-9.7,0-8.85,2.3-16.95,6.87-23.5,13.26-10.88,10.58-19.45,23.31-25.17,37.37-1.14,3.49-7.58,16.22-7.58,16.22-4.68,10.35-10.84,19.98-18.27,28.58-5.15,6.22-8.57,5.38-8.57,5.38-5.31-1.21,0-13.49,0-13.49l29.03-71.1c0-1.36-1.82,0-1.82,0-1.25.87-2.6,1.58-4.02,2.12-5.57,1.91-11.27,3.41-17.05,4.47l-4.4,11.98c-1.21,2.88-1.67-.76-1.67-.76-.81-3.8-3.78-6.77-7.58-7.58-3.19-.73-6.51-.73-9.7,0-8.85,2.3-16.95,6.88-23.5,13.26-5.13,4.93-9.75,10.37-13.8,16.22-2.64,3.89-5.92,7.29-9.7,10.08-4.72,3.96-10.6,6.27-16.75,6.59,3.49-9.23,6.37-18.67,8.64-28.27,1.67-8.79-3.79-7.58-3.79-7.58-3.86,1.03-7.41,3.01-10.31,5.76-7.83,6.24-12.6,15.54-13.11,25.54-.29,4.95,2.19,9.65,6.44,12.2-5.72,17.73-14.41,34.37-25.7,49.19-7.05,9.32-11.75,8.49-11.75,8.49-3.64,0-2.27-7.58-2.27-7.58,2.16-10.08,5.36-19.91,9.55-29.33,5.24-11.8,8.81-24.28,10.61-37.07.99-12.81-9.7-10.61-9.7-10.61-5.76,1.25-11.02,4.15-15.16,8.34-7.49,6.66-14.05,14.31-19.48,22.74-6.29,10.99-21,36.46-21,36.46-5,9.37-10.67,18.36-16.98,26.91ZM897.01,94.79c3.34-11.27,7.6-22.25,12.73-32.82,3.76-7.77,9.04-14.71,15.54-20.39,0,0,4.62-4.24,8.03-4.09,0,0,6.59-1.44,6.44,9.4-.3,8.26-2.31,16.36-5.91,23.8-4.68,10-10.08,19.65-16.15,28.88-2.94,4.48-6.43,8.58-10.38,12.2-7.58,5.68-10.61,2.27-10.61,2.27-4.17-4.78.3-19.25.3-19.25ZM641.19,162.32c3.33-11.32,7.59-22.35,12.73-32.97,3.76-7.77,9.04-14.7,15.54-20.39,0,0,4.62-4.24,8.03-4.09,0,0,6.59-1.44,6.44,9.4-.3,8.26-2.31,16.36-5.91,23.8-4.61,10.09-9.93,19.84-15.92,29.18-2.97,4.48-6.49,8.58-10.46,12.2-7.58,5.68-10.61,2.27-10.61,2.27-4.32-4.93.15-19.4.15-19.4ZM541.21,188.7c3.32-11.24,7.56-22.19,12.66-32.75,3.76-7.77,9.04-14.7,15.54-20.39,0,0,4.62-4.24,8.03-4.09,0,0,6.59-1.44,6.44,9.4-.3,8.26-2.32,16.36-5.91,23.8-4.61,9.97-9.93,19.59-15.92,28.8-2.94,4.48-6.43,8.58-10.38,12.2-7.58,5.68-10.61,2.27-10.61,2.27-4.32-4.78.15-19.25.15-19.25ZM441.08,215.16c3.35-11.24,7.61-22.19,12.73-32.75,3.75-7.77,9.04-14.71,15.54-20.39,0,0,4.62-4.24,8.03-4.09,0,0,6.59-1.44,6.44,9.4-.27,8.22-2.23,16.3-5.76,23.73-4.6,10-9.92,19.65-15.92,28.88-2.95,4.48-6.44,8.58-10.38,12.2-7.58,5.68-10.61,2.27-10.61,2.27-4.55-4.78-.08-19.25-.08-19.25Z"/><path class="cls-1" d="M871.24,32.86c7.99-3.44,13.69-10.68,15.16-19.25,2.05-8.94-2.43-14.48-8.79-12.81-7.85,3.58-13.49,10.72-15.16,19.18-2.12,8.94,2.2,14.55,8.79,12.89Z"/><path class="cls-1" d="M312.98,180.21c7.96-3.44,13.65-10.64,15.16-19.18,2.05-8.94-2.43-14.55-8.79-12.81-7.84,3.59-13.48,10.72-15.16,19.18-2.05,8.87,2.43,14.48,8.79,12.81Z"/><path class="cls-1" d="M1043.46,133.75c-3.21-8.69-9.76-15.73-18.19-19.56-12.82-4.93-26.97-5.17-39.95-.68-14.49,5.1-27.37,13.97-37.29,25.7-10.2,11.08-15.29,25.93-14.02,40.93,0,0,.53,7.58,3.79,7.58,0,0,2.27-.61,1.97-3.94-2.33-14.54,2.3-29.33,12.51-39.95,10.85-12.35,25.63-20.57,41.84-23.27,0,0,26.61-5.68,38.35,17.05,3.89,7.99,4.7,17.14,2.27,25.7-3.17,9.67-8.66,18.41-15.99,25.47-8.71,9.02-18.73,16.68-29.71,22.74-22.61,12.1-46.44,21.76-71.1,28.8.76-4.81.21-9.73-1.59-14.25-12.73-36.69-96.49-26.38-96.49-26.38-83.38,4.55-168.65,44.34-168.65,44.34-32.44,13.49-70.87,33.12-104.68,51.54-53.06,4.02-103.16,9.32-142.43,13.87-13.64-27.97-57.23-18.04-57.23-18.04-16.2,2.82-31.21,10.36-43.13,21.68-3.37,3.17-6.28,6.79-8.64,10.76-13.04,2.27-25.54,4.78-37.29,7.58-.38-2.96-.45-4.78-.45-4.78-1.89-42.83-12.13-57.38-12.13-57.38-5.61-11.83-15.11-21.38-26.91-27.06-3.03-.99,0-1.67,0-1.67,16.86-8.22,32.35-18.98,45.93-31.91,22.51-20.29,37.88-47.29,43.81-77.01,5.38-30.32-8.72-44.8-8.72-44.8-11.07-9.78-24.63.91-24.63.91-25.85,19.25-54.04,71.25-54.04,71.25-13.74,24.6-26.19,49.9-37.29,75.8l-2.2,5.31c-2.59.89-5.13,1.95-7.58,3.18,0,0-7.2,3.56-6.9,8.03,0,0,.83,3.34,8.87,2.88-13.26,32.59-26.53,67.23-26.53,67.23-8.11,19.33-17.59,37.9-21.45,45.48-8.49,3.11-16.45,6.29-23.8,9.4,6.57-21.69,14.54-42.94,23.88-63.6,11.86-27.63,25.09-54.65,39.64-80.95,13.42-24.94,26.53-54.95,26.53-54.95,7.57-16.77,13.91-34.07,18.95-51.77.8-2.46.8-5.12,0-7.58-2.2-.83-4.17,2.73-4.17,2.73-21.21,25.11-45.8,47.15-73.07,65.49-17.89,11.39-38.13,18.6-59.2,21.07-23.88,1.67-27.52-11.37-27.52-11.37-3-7.33-2.76-15.6.68-22.74,8.64-22.13,36.31-38.66,36.31-38.66,19.31-13.76,42.32-21.37,66.02-21.83,5.8-.18,11.58.72,17.05,2.65,1.36.65,2.98.41,4.09-.61,0,0,2.2-2.27-3.94-4.78-4.89-1.69-9.99-2.71-15.16-3.03-19.04-.64-37.96,3.1-55.33,10.92-19.42,6.86-37.07,17.94-51.69,32.44-18.95,18.87-19.94,34.87-16.07,44.72,0,0,4.7,19.63,39.49,19.25,18.96-.86,37.5-5.83,54.35-14.55,21.74-10.6,41.35-25.12,57.83-42.83,0,0,3.79-4.02,1.74.76,0,0-11.52,26.38-30.32,59.81-15.42,25.68-29.05,52.4-40.78,79.97-12.23,27.65-20.57,56.86-24.79,86.79-16.39,7.31-32.27,15.72-47.53,25.17,0,0-45.48,27.44-39.79,50.56,0,0-.91,29.79,75.8,28.65,63.76-3.56,126.67-16.33,186.77-37.9,69.42-24.54,136.2-55.98,199.35-93.84,0,0,40.55-25.77,87.85-53.06l29.79-2.05s146.97-8.41,252.87-32.14c0,0,30.32-6.14,66.48-16.68-3.4,6.86-8.06,13.03-13.72,18.19-14.21,12.29-30.21,22.33-47.45,29.79l1.59-.83s-71.93,33.12-140.23,28.42c-6.02-.45-12.02-1.21-17.96-2.27-8.7-1.77-17-5.14-24.48-9.93,0,0-3.64-4.17-4.32,0,.24,2.96,1.91,5.62,4.47,7.13,10.78,7.22,23.41,11.16,36.38,11.37,21.72,1.84,43.59.59,64.96-3.71,40.31-6.93,79.12-20.81,114.68-41.01,20.69-12.66,33.12-24.56,39.04-34.87,1.37-2.42,2.51-4.95,3.41-7.58,25.4-7.43,49.98-17.41,73.37-29.79,12.38-6.65,23.85-14.88,34.11-24.48,9.16-8.4,16.28-18.76,20.84-30.32,3.07-9.4,2.66-19.6-1.14-28.73ZM315.79,312.41c9.11-7.67,20.1-12.78,31.84-14.78,0,0,31.91-7.58,44.27,12.73-43.28,5.23-70.8,9.32-70.8,9.32l-15.16,2.43c2.82-3.57,6.02-6.83,9.55-9.7h.3ZM291.61,332.42c-1.95,5.78-2.34,11.98-1.14,17.96,0,0,.99,5,3.11,6.22,0,0,3.79,2.96,2.12-5.08-.56-7.12.94-14.25,4.32-20.54l11.75-1.89s27.67-5,83.38-11.45c4.67,14.35.48,30.1-10.69,40.25-13.72,12.78-30.51,21.79-48.74,26.15-42.75,10.61-61.93-12.13-61.93-12.13-7.26-9.78-12.21-21.08-14.48-33.05,10.16-2.43,20.92-4.47,32.29-6.44ZM193.67,234.41c10.72-26.01,23.05-51.32,36.91-75.8,0,0,29.71-53.06,45.48-52.6,0,0,7.58-.99,9.7,12.28,1.66,24.07-4.59,48.03-17.81,68.22,0,0-24.86,41.39-62.76,51.69-4.32-.69-8.72-.69-13.04,0l1.52-3.79ZM158.27,322.94s16.75-40.78,28.42-70.42l2.2-.61s9.47-2.96,15.16-5.38c0,0,13.19-5.46,22.74,12.66,0,0,6.29,9.93,4.55,35.25-.84,14.12-.05,28.28,2.35,42.22-50.94,11.9-83.76,23.12-83.76,23.12l-11.6,3.94c7.5-13.16,14.16-26.78,19.94-40.78ZM121.82,377.59c-15.16,24.79-19.56,22.74-19.56,22.74-3.03,0-1.21-11.6-1.21-11.6,0,0,0-1.97.53-2.96,7.43-3.18,14.25-6.29,20.24-8.19ZM460.64,343.86c-63.36,38.22-130.31,70.16-199.88,95.36-150.76,52.53-223.53,37.9-223.53,37.9-29.11-4.24-28.05-21.07-28.05-21.07-1.82-11.98,15.16-26.15,15.16-26.15,19.31-15.33,40.53-28.07,63.14-37.9-.23,3.94-.23,7.89,0,11.82,0,0,1.29,8.11,4.78,9.32,0,0,7.58,4.47,22.74-14.7,6.38-7.81,12.18-16.06,17.36-24.71,6.44-2.27,10.31-3.49,10.31-3.49,30.26-11.16,61.29-20.07,92.85-26.68.45,1.52.91,2.96,1.36,4.4,0,0,16.22,59.12,93.76,43.51,16.73-2.66,32.61-9.17,46.39-19.03,33.2-23.42,31.99-46.69,29.71-56.17,32.21-3.64,72.69-7.58,121.28-11.29-38.51,21.45-67.39,38.88-67.39,38.88ZM824.47,263.21c-78.66,14.39-158.12,24.06-237.93,28.96l-18.42,1.21c26.45-15.16,53.74-29.18,76.33-39.11,0,0,96.11-44.95,179.26-47.68,0,0,70.42-5.31,77.69,22.74,1.99,4.67,2.39,9.86,1.14,14.78-41.46,12.05-78.22,19.1-78.22,19.1h.15Z"/></svg>