<?xml version="1.0" encoding="UTF-8"?><svg id="Capa_2" xmlns="http://www.w3.org/2000/svg" viewBox="0 0 336.14 350.25"><defs><style>.cls-1{fill:#fff;}.cls-2{fill:#999;}</style></defs><g id="dummy-Act-Conversación"><ellipse class="cls-1" cx="168.07" cy="175.12" rx="168.07" ry="175.12"/><path class="cls-2" d="M125.24,235.06c-2.51,0-4.61-.85-6.31-2.54-1.7-1.7-2.54-3.8-2.54-6.31v-17.7h115.05v-79.65h17.7c2.51,0,4.61.85,6.31,2.54s2.54,3.8,2.54,6.31v132.75l-35.4-35.4h-97.35ZM80.99,226.21v-123.9c0-2.51.85-4.61,2.54-6.31s3.8-2.54,6.31-2.54h115.05c2.51,0,4.61.85,6.31,2.54s2.54,3.8,2.54,6.31v79.65c0,2.51-.85,4.61-2.54,6.31-1.7,1.7-3.8,2.54-6.31,2.54h-88.5l-35.4,35.4ZM196.04,173.11v-61.95h-97.35v61.95h97.35ZM98.69,173.11v-61.95,61.95Z"/></g></svg>