<?xml version="1.0" encoding="UTF-8" standalone="no"?>
<svg
   xmlns:dc="http://purl.org/dc/elements/1.1/"
   xmlns:cc="http://creativecommons.org/ns#"
   xmlns:rdf="http://www.w3.org/1999/02/22-rdf-syntax-ns#"
   xmlns:svg="http://www.w3.org/2000/svg"
   xmlns="http://www.w3.org/2000/svg"
   height="24"
   viewBox="0 -960 960 960"
   width="24"
   version="1.1"
   id="svg835">
  <metadata
     id="metadata841">
    <rdf:RDF>
      <cc:Work
         rdf:about="">
        <dc:format>image/svg+xml</dc:format>
        <dc:type
           rdf:resource="http://purl.org/dc/dcmitype/StillImage" />
        <dc:title></dc:title>
      </cc:Work>
    </rdf:RDF>
  </metadata>
  <defs
     id="defs839" />
  <path
     id="path833"
     style="stroke-width:1"
     d="m 139.57032,-833.55468 c -22,0 -40.817704,7.84896 -56.484376,23.51562 -15.666664,15.66668 -23.515624,34.48438 -23.515624,56.48438 v 480 c 0,22 7.848956,40.81772 23.515624,56.48436 15.666672,15.66668 34.484376,23.51564 56.484376,23.51564 h 328.51564 a 267.72565,267.72565 0 0 1 -30.07812,-80 H 139.57032 v -480 h 207.03125 l 79.99999,80 h 352.96876 v 91.40624 a 267.72565,267.72565 0 0 1 80,40.54688 v -131.95312 c 0,-22 -7.84896,-40.8177 -23.51564,-56.48438 -15.66664,-15.66666 -34.48436,-23.51562 -56.48436,-23.51562 h -320 l -80,-80 z m 80,240 v 80 h 160 v -80 z m 480.85936,67.10936 c -55.33328,0 -102.48436,19.51564 -141.48436,58.51564 -39,39 -58.51564,86.15104 -58.51564,141.48436 0,55.33336 19.51564,102.56252 58.51564,141.56252 39,39 86.15108,58.43748 141.48436,58.43748 55.33332,0 102.4844,-19.43748 141.4844,-58.43748 39,-39 58.5156,-86.22916 58.5156,-141.56252 0,-55.33332 -19.5156,-102.48436 -58.5156,-141.48436 -39,-39 -86.15108,-58.51564 -141.4844,-58.51564 z m -480.85936,92.89064 v 80 h 80 v -80 z m 370.85936,77.10936 c 8.00004,0 15.01564,3.0624 21.01564,9.06252 6,6 8.98436,12.93748 8.98436,20.93748 0,8 -2.9844,15.01564 -8.98436,21.01564 -6,6 -13.0156,8.98436 -21.01564,8.98436 -8,0 -15.0156,-2.9844 -21.0156,-8.98436 -6,-6 -8.9844,-13.01564 -8.9844,-21.01564 0,-8 2.9844,-14.93748 8.9844,-20.93748 6,-6 13.0156,-9.06252 21.0156,-9.06252 z m 110,0 c 8,0 15.01564,3.0624 21.01564,9.06252 6,6 8.98436,12.93748 8.98436,20.93748 0,8 -2.9844,15.01564 -8.98436,21.01564 -6,6 -13.01564,8.98436 -21.01564,8.98436 -8,0 -15.0156,-2.9844 -21.0156,-8.98436 -6,-6 -8.9844,-13.01564 -8.9844,-21.01564 0,-8 2.9844,-14.93748 8.9844,-20.93748 6,-6 13.0156,-9.06252 21.0156,-9.06252 z m 110,0 c 8,0 15.01564,3.0624 21.01564,9.06252 6,6 8.98436,12.93748 8.98436,20.93748 0,8 -2.9844,15.01564 -8.98436,21.01564 -6,6 -13.01564,8.98436 -21.01564,8.98436 -8,0 -15.0156,-2.9844 -21.0156,-8.98436 -6,-6 -8.9844,-13.01564 -8.9844,-21.01564 0,-8 2.9844,-14.93748 8.9844,-20.93748 6,-6 13.0156,-9.06252 21.0156,-9.06252 z" />
  <path
     d="m 1846.2735,-280.74971 h 320 v -80 h -320 z m 0,-160 h 480 v -80 h -480 z m -80,320 q -33,0 -56.5,-23.5 -23.5,-23.5 -23.5,-56.5 v -480 q 0,-33 23.5,-56.5 23.5,-23.5 56.5,-23.5 h 240 l 80,80 h 320 q 33,0 56.5,23.5 23.5,23.5 23.5,56.5 v 400 q 0,33 -23.5,56.5 -23.5,23.5 -56.5,23.5 z m 0,-80 h 640 v -400 h -353 l -80,-80 h -207 z m 0,0 v -480 z"
     id="path833-7"
     style="stroke-width:1" />
  <path
     d="m 1857.2731,610.51015 h 80 v -80 h -80 z m 0,-240 h 80 v 80 h -80 z m -80,400 c -22,0 -40.8334,-7.83333 -56.5,-23.5 -15.6667,-15.66667 -23.5,-34.5 -23.5,-56.5 v -480 c 0,-22 7.8333,-40.83333 23.5,-56.5 15.6666,-15.66667 34.5,-23.5 56.5,-23.5 h 240 l 80,80 h 320 c 22,0 40.8333,7.83333 56.5,23.5 15.6666,15.66667 23.5,34.5 23.5,56.5 v 400 c 0,22 -7.8334,40.83333 -23.5,56.5 -15.6667,15.66667 -34.5,23.5 -56.5,23.5 z m 0,-80 h 640 v -400 h -353 l -80,-80 h -207 z m 0,0 v -480 z"
     id="path833-8"
     style="stroke-width:1" />
  <circle
     style="fill:#ffffff;stroke-width:60;stroke-dashoffset:3.18;stop-color:#000000"
     id="path2609-4"
     cx="2338.1394"
     cy="637.6582"
     r="267.72565" />
  <path
     d="m 2228.1395,667.65815 c 8,0 15,-3 21,-9 6,-6 9,-13 9,-21 0,-8 -3,-15 -9,-21 -6,-6 -13,-9 -21,-9 -8,0 -15,3 -21,9 -6,6 -9,13 -9,21 0,8 3,15 9,21 6,6 13,9 21,9 z m 110,0 c 8,0 15,-3 21,-9 6,-6 9,-13 9,-21 0,-8 -3,-15 -9,-21 -6,-6 -13,-9 -21,-9 -8,0 -15,3 -21,9 -6,6 -9,13 -9,21 0,8 3,15 9,21 6,6 13,9 21,9 z m 110,0 c 8,0 15,-3 21,-9 6,-6 9,-13 9,-21 0,-8 -3,-15 -9,-21 -6,-6 -13,-9 -21,-9 -8,0 -15,3 -21,9 -6,6 -9,13 -9,21 0,8 3,15 9,21 6,6 13,9 21,9 z m -110,170 c -55.3333,0 -102.5,-19.5 -141.5,-58.5 -39,-39 -58.5,-86.16667 -58.5,-141.5 0,-55.33333 19.5,-102.5 58.5,-141.5 39,-39 86.1667,-58.5 141.5,-58.5 55.3333,0 102.5,19.5 141.5,58.5 39,39 58.5,86.16667 58.5,141.5 0,55.33333 -19.5,102.5 -58.5,141.5 -39,39 -86.1667,58.5 -141.5,58.5 z"
     id="path2005-8" />
  <path
     d="m 1962.129,370.51015 h 80 v 80 h -80 z"
     id="path833-8-6"
     style="stroke-width:1" />
  <path
     d="m 2060.4438,370.51015 h 80 v 80 h -80 z"
     id="path833-8-6-5"
     style="stroke-width:1" />
</svg>
