<?xml version="1.0" encoding="UTF-8"?><svg id="Layer_1" xmlns="http://www.w3.org/2000/svg" viewBox="0 0 181.95 94.38"><defs><style>.cls-1{fill:#2d4e91;}.cls-2{fill:#36ace0;}</style></defs><path class="cls-1" d="m123.66,14.96c-1.32-2.99-3.13-5.58-5.43-7.78-2.31-2.19-4.99-3.91-8.07-5.14-3.07-1.24-6.69-1.85-10.86-1.85h-10.7c-1.81,0-3.46.74-4.93,2.22-1.22,1.22-1.88,2.51-2.06,3.89-.04-.86-.26-1.67-.68-2.41-.88-1.54-2.14-2.63-3.79-3.29-1.75-.66-3.47-.69-5.14-.08-1.67.6-2.89,1.95-3.66,4.03l-8.47,21.72-7.85-20.12v-.03s-.63-1.57-.63-1.57c-.07-.21-.16-.4-.25-.59l-1.54-3.87h-4.44c-.85.02-1.71.19-2.58.51-1.65.66-2.91,1.75-3.78,3.29-.87,1.54-.93,3.35-.16,5.43l13.41,32.56,3.06,7.52h4.84c.08,0,.16,0,.25,0,2.85,0,4.94-1.51,6.25-4.53l14.65-35.55c.22-.6.36-1.18.44-1.73v34.98c0,2.2.68,3.87,2.06,5.02.27.27.55.49.82.66.27.17.55.3.82.41.88.5,2,.74,3.37.74h11.77c4.17-.22,7.46-.85,9.87-1.89,2.25-.99,4.32-2.24,6.21-3.75,1.89-1.51,3.51-3.25,4.85-5.22,1.35-1.98,2.4-4.13,3.17-6.46.77-2.33,1.15-4.81,1.15-7.45,0-3.46-.66-6.68-1.97-9.67Zm-12.72,14.23c-.57,1.35-1.38,2.5-2.43,3.46-1.04.96-2.25,1.72-3.62,2.26-1.37.55-2.85.82-4.44.82h-5.35V14.01h5.26c.83,0,1.32-.02,1.48-.08,1.04.06,2.06.3,3.04.74,2.08.82,3.76,2.1,5.02,3.83,1.26,1.73,1.89,3.83,1.89,6.3,0,1.59-.29,3.06-.87,4.4Z"/><path class="cls-1" d="m24.12.19H6.51c-.15,0-.29,0-.44.02v-.02H0v6.84h0c.11,4.55,2.3,6.82,6.58,6.82h18.27c1.81,0,2.71.69,2.71,2.06s-.9,2.06-2.71,2.06H7.74C2.64,17.96.09,20.68.09,26.11c0,1.86,1.78,4.2,5.35,6.99l14.13,14.04h0s5.34,5.35,5.34,5.35l4.39-4.39c.2-.18.4-.38.6-.6l.09-.09h0c.05-.06.1-.11.15-.16,2.8-3.29,2.55-6.64-.74-10.04l-5.85-5.59h1.4c9.66-.28,14.49-5.51,14.49-15.72S34.32.19,24.12.19Z"/><path class="cls-2" d="m174.9,0h0c-3.89,0-7.05,3.16-7.05,7.05v33.88c-.07-.26-.12-.51-.22-.78l-14.65-35.55c-1.31-3.02-3.4-4.53-6.25-4.53-.08,0-.16,0-.25,0h0s-4.84,0-4.84,0l-3.06,7.52-10.41,25.28c.9-.23,1.84-.37,2.81-.37,5.41,0,9.92,3.85,10.94,8.96h11.61l1.35,3.46c.77,2.09,1.99,3.43,3.66,4.03,1.67.6,3.39.58,5.14-.08,1.65-.66,2.91-1.75,3.79-3.29.3-.53.47-1.1.57-1.69.72,3.13,3.51,5.47,6.86,5.47h0c3.89,0,7.05-3.16,7.05-7.05V7.05c0-3.89-3.16-7.05-7.05-7.05Zm-31.5,30.89l3-7.69,3,7.69h-6Z"/><path class="cls-2" d="m130.98,37.97c-3.14,0-5.69,2.55-5.69,5.69s2.55,5.69,5.69,5.69,5.69-2.55,5.69-5.69-2.55-5.69-5.69-5.69Z"/><path class="cls-1" d="m71.08,75.65c-.49.66-.82.66-.82.66-.46-.11,0-1.17,0-1.17l2.52-6.18c0-.12-.16,0-.16,0-.11.08-.23.14-.35.18-.51.17-1.04.31-1.57.42l-.32.79-.94,2.28-.58,1.42c-.36.82-.66,1.8-.66,1.8-.16.5-.18,1.03-.07,1.54.07.41.45.7.86.66.63-.05,1.21-.37,1.6-.86.28-.28.54-.57.78-.88,0,0,.89-1.25,1.27-1.91,0,0,1.13-2.02,1.61-2.85.4-.68.84-1.34,1.32-1.98,0,0,.48-.66.66-.66,0,0,.22-.05.16.25-.22.76-.51,1.5-.86,2.21-.5,1.15-.83,2.36-.98,3.61,0,0-.13,1.6,1.05,1.32.4-.09.77-.25,1.11-.47.51-.34.96-.78,1.32-1.27,1.11-1.43,2-3.01,2.64-4.71.57,0,1.12-.17,1.6-.47.15-.09.05.04.05.04-.96,2.48-.54,3.96-.54,3.96,0,0,.17,1.06,1.16.92,0,0,.89-.03,1.93-1.32.55-.63,1.02-1.32,1.42-2.06,0,0,.15-.17.09,0-.17.53-.21,1.09-.13,1.63.04.39.37.68.76.66,0,0,.57.09,1.42-.74.75-.77,1.39-1.65,1.9-2.6,0,0,.13-.26.11-.04-.04.43-.01.87.09,1.29,0,0,.27,1.02,1.1.92,0,0,.89-.03,1.93-1.32.53-.64,1.01-1.33,1.42-2.06,0,0,.15-.17.09,0-.17.53-.21,1.09-.13,1.63.04.39.37.68.76.66,0,0,.57.06,1.42-.76.73-.78,1.37-1.64,1.89-2.56,0,0,.09-.17.08,0-.02.39.02.78.11,1.16,0,0,.3,1.02,1.13.94,0,0,.89-.04,1.93-1.32.27-.31.53-.65.76-.99.24-.35.46-.71.66-1.07,0,0,.15-.17.09,0-.17.53-.21,1.09-.13,1.63.04.39.37.68.76.66,0,0,.57.09,1.42-.74.79-.86,1.47-1.81,2.02-2.83,0,0,1.11-1.98,1.6-2.85.4-.68.84-1.34,1.32-1.98,0,0,.48-.66.66-.66,0,0,.22-.05.16.25-.22.79-.51,1.55-.88,2.28-.5,1.15-.83,2.36-.98,3.61,0,0-.09,1.57,1.05,1.32.4-.06.78-.22,1.11-.47.5-.36.94-.78,1.32-1.27,1.11-1.42,2-3.01,2.64-4.7.78,0,1.53-.28,2.11-.81,0,0,.18-.17.13,0l-.56,1.32c-.36.82-.66,1.81-.66,1.81-.19.52-.23,1.08-.13,1.63.07.41.45.7.86.66.65-.06,1.25-.38,1.67-.89.79-.81,1.46-1.74,1.98-2.76,0,0,.09-.18.07.05-.08.44-.04.89.11,1.32,0,0,.28,1.03,1.12.93,0,0,.89-.04,1.92-1.32.26-.29.51-.6.74-.92.24-.36.46-.73.66-1.11,0,0,.15-.17.09,0-.17.51-.2,1.06-.11,1.6.07.41.38.73.79.8,0,0,1,.26,2.64-1.28.4-.36.75-.78,1.05-1.23.7-.94,1.24-1.99,1.62-3.1.07-.28.08-.57.03-.86-.22-.51-.34,0-.34,0-.26.66-.31.97-.58,1.57-.4.88-.9,1.71-1.52,2.45-1.32,1.52-1.84.83-1.84.83-.37-.36-.07-1.15-.07-1.15l2.58-6.3c0-.12-.16,0-.16,0-.11.08-.23.14-.35.18-.48.17-.98.3-1.48.39l-.42,1.02c-.11.25-.15-.07-.15-.07-.07-.33-.33-.59-.66-.66-.28-.06-.57-.06-.84,0-.77.2-1.47.6-2.04,1.15-.94.91-1.69,2.01-2.19,3.22,0,0-.38.86-.66,1.42-.48.86-1.02,1.68-1.61,2.46-.48.57-.76.54-.76.54-.46-.11.03-1.17.03-1.17l2.52-6.18c0-.12-.16,0-.16,0-.11.08-.23.14-.35.18-.51.17-1.04.31-1.57.42l-.32.79c-.31.77-.84,1.42-1.54,1.87-.37.3-.84.47-1.32.47.3-.81.54-1.63.73-2.47.15-.76-.33-.66-.33-.66-.34.09-.64.26-.9.5-.68.54-1.1,1.35-1.14,2.22-.03.43.19.84.56,1.06-.5,1.54-1.25,2.98-2.23,4.27-.62.81-1.02.74-1.02.74-.32,0-.2-.66-.2-.66.19-.88.47-1.73.83-2.55.46-1.03.77-2.11.92-3.22.09-1.11-.84-.92-.84-.92-.5.11-.96.36-1.32.73-.64.59-1.21,1.25-1.69,1.98-.59.87-1.86,3.17-1.86,3.17-.46.88-.99,1.73-1.6,2.52-.45.54-.73.46-.73.46-.44-.11.07-1.17.07-1.17l2.52-6.18c.07-.12-.16,0-.16,0-.11.08-.23.14-.35.18-.48.17-.98.3-1.48.39l-.42,1c-.11.25-.15-.07-.15-.07-.07-.33-.33-.59-.66-.66-.28-.06-.57-.06-.84,0-.77.2-1.47.6-2.04,1.15-.92.89-1.65,1.96-2.15,3.14l-.04.11s-.31.73-.66,1.41c-.25.52-.52,1.02-.82,1.5-.22.36-.47.7-.74,1.02-.45.54-.73.46-.73.46-.46-.11.03-1.17.03-1.17l2.52-6.18c0-.07.33-.84.33-.84.45-1.04.8-2.12,1.05-3.22.26-.8.04-1.68-.58-2.25-.98-.88-3.2,0-3.2,0-1.54.61-2.84,1.72-3.68,3.14-.94,1.75,0,2.58,0,2.58.36.36,1.42.55,2.81-.8,1.24-1.19,1.13-2.1,1.13-2.1-.12-.53-.26-.08-.26-.08-.23.75-.69,1.41-1.32,1.89-.78.58-1.32.3-1.32.3-.86-.66.29-2.52.29-2.52.76-1.09,1.89-1.87,3.18-2.19,1.22-.36,1.7.26,1.75.8,0,.34-.06.68-.18,1-.08.22-.24.61-.61,1.51-.59,1.51-1.4,3.37-1.4,3.37l-.4,1c-.11.25-.15-.07-.15-.07-.07-.33-.33-.59-.66-.66-.28-.06-.57-.06-.84,0-.77.2-1.47.6-2.04,1.15-.95.92-1.69,2.03-2.19,3.25-.1.3-.66,1.41-.66,1.41-.41.9-.94,1.74-1.59,2.49-.45.54-.74.47-.74.47-.46-.11,0-1.17,0-1.17l2.52-6.18c0-.12-.16,0-.16,0-.11.08-.23.14-.35.18-.48.17-.98.3-1.48.39l-.38,1.04c-.11.25-.15-.07-.15-.07-.07-.33-.33-.59-.66-.66-.28-.06-.57-.06-.84,0-.77.2-1.47.6-2.04,1.15-.45.43-.85.9-1.2,1.41-.23.34-.51.63-.84.88-.41.34-.92.55-1.46.57.3-.8.55-1.62.75-2.46.15-.76-.33-.66-.33-.66-.34.09-.64.26-.9.5-.68.54-1.1,1.35-1.14,2.22-.02.43.19.84.56,1.06-.5,1.54-1.25,2.99-2.23,4.28-.61.81-1.02.74-1.02.74-.32,0-.2-.66-.2-.66.19-.88.47-1.73.83-2.55.46-1.03.77-2.11.92-3.22.09-1.11-.84-.92-.84-.92-.5.11-.96.36-1.32.73-.65.58-1.22,1.24-1.69,1.98-.55.96-1.83,3.17-1.83,3.17-.43.81-.93,1.6-1.48,2.34Zm52.37-15.47c.29-.98.66-1.93,1.11-2.85.33-.68.79-1.28,1.35-1.77,0,0,.4-.37.7-.36,0,0,.57-.13.56.82-.03.72-.2,1.42-.51,2.07-.41.87-.88,1.71-1.4,2.51-.26.39-.56.75-.9,1.06-.66.49-.92.2-.92.2-.36-.42.03-1.67.03-1.67Zm-22.25,5.87c.29-.98.66-1.94,1.11-2.87.33-.68.79-1.28,1.35-1.77,0,0,.4-.37.7-.36,0,0,.57-.13.56.82-.03.72-.2,1.42-.51,2.07-.4.88-.86,1.73-1.38,2.54-.26.39-.56.75-.91,1.06-.66.49-.92.2-.92.2-.38-.43.01-1.69.01-1.69Zm-8.69,2.29c.29-.98.66-1.93,1.1-2.85.33-.68.79-1.28,1.35-1.77,0,0,.4-.37.7-.36,0,0,.57-.13.56.82-.03.72-.2,1.42-.51,2.07-.4.87-.86,1.7-1.38,2.5-.26.39-.56.75-.9,1.06-.66.49-.92.2-.92.2-.38-.42.01-1.67.01-1.67Zm-8.71,2.3c.29-.98.66-1.93,1.11-2.85.33-.68.79-1.28,1.35-1.77,0,0,.4-.37.7-.36,0,0,.57-.13.56.82-.02.71-.19,1.42-.5,2.06-.4.87-.86,1.71-1.38,2.51-.26.39-.56.75-.9,1.06-.66.49-.92.2-.92.2-.4-.42,0-1.67,0-1.67Z"/><path class="cls-1" d="m121.21,54.79c.69-.3,1.19-.93,1.32-1.67.18-.78-.21-1.26-.76-1.11-.68.31-1.17.93-1.32,1.67-.18.78.19,1.27.76,1.12Z"/><path class="cls-1" d="m72.66,67.61c.69-.3,1.19-.93,1.32-1.67.18-.78-.21-1.27-.76-1.11-.68.31-1.17.93-1.32,1.67-.18.77.21,1.26.76,1.11Z"/><path class="cls-1" d="m136.19,63.57c-.28-.76-.85-1.37-1.58-1.7-1.11-.43-2.35-.45-3.47-.06-1.26.44-2.38,1.21-3.24,2.23-.89.96-1.33,2.25-1.22,3.56,0,0,.05.66.33.66,0,0,.2-.05.17-.34-.2-1.26.2-2.55,1.09-3.47.94-1.07,2.23-1.79,3.64-2.02,0,0,2.31-.49,3.34,1.48.34.7.41,1.49.2,2.23-.28.84-.75,1.6-1.39,2.21-.76.78-1.63,1.45-2.58,1.98-1.97,1.05-4.04,1.89-6.18,2.5.07-.42.02-.85-.14-1.24-1.11-3.19-8.39-2.29-8.39-2.29-7.25.4-14.67,3.86-14.67,3.86-2.82,1.17-6.16,2.88-9.1,4.48-4.61.35-8.97.81-12.39,1.21-1.19-2.43-4.98-1.57-4.98-1.57-1.41.24-2.71.9-3.75,1.89-.29.28-.55.59-.75.94-1.13.2-2.22.42-3.24.66-.03-.26-.04-.42-.04-.42-.16-3.72-1.05-4.99-1.05-4.99-.49-1.03-1.31-1.86-2.34-2.35-.26-.09,0-.15,0-.15,1.47-.71,2.81-1.65,3.99-2.78,1.96-1.76,3.29-4.11,3.81-6.7.47-2.64-.76-3.9-.76-3.9-.96-.85-2.14.08-2.14.08-2.25,1.67-4.7,6.2-4.7,6.2-1.2,2.14-2.28,4.34-3.24,6.59l-.19.46c-.23.08-.45.17-.66.28,0,0-.63.31-.6.7,0,0,.07.29.77.25-1.15,2.83-2.31,5.85-2.31,5.85-.71,1.68-1.53,3.3-1.87,3.96-.74.27-1.43.55-2.07.82.57-1.89,1.26-3.73,2.08-5.53,1.03-2.4,2.18-4.75,3.45-7.04,1.17-2.17,2.31-4.78,2.31-4.78.66-1.46,1.21-2.96,1.65-4.5.07-.21.07-.44,0-.66-.19-.07-.36.24-.36.24-1.84,2.18-3.98,4.1-6.35,5.7-1.56.99-3.32,1.62-5.15,1.83-2.08.15-2.39-.99-2.39-.99-.26-.64-.24-1.36.06-1.98.75-1.92,3.16-3.36,3.16-3.36,1.68-1.2,3.68-1.86,5.74-1.9.5-.02,1.01.06,1.48.23.12.06.26.04.36-.05,0,0,.19-.2-.34-.42-.43-.15-.87-.24-1.32-.26-1.66-.06-3.3.27-4.81.95-1.69.6-3.22,1.56-4.5,2.82-1.65,1.64-1.73,3.03-1.4,3.89,0,0,.41,1.71,3.43,1.67,1.65-.07,3.26-.51,4.73-1.27,1.89-.92,3.6-2.18,5.03-3.72,0,0,.33-.35.15.07,0,0-1,2.29-2.64,5.2-1.34,2.23-2.53,4.56-3.55,6.95-1.06,2.4-1.79,4.94-2.16,7.55-1.43.64-2.81,1.37-4.13,2.19,0,0-3.96,2.39-3.46,4.4,0,0-.08,2.59,6.59,2.49,5.54-.31,11.02-1.42,16.24-3.3,6.04-2.13,11.84-4.87,17.34-8.16,0,0,3.53-2.24,7.64-4.61l2.59-.18s12.78-.73,21.99-2.79c0,0,2.64-.53,5.78-1.45-.3.6-.7,1.13-1.19,1.58-1.24,1.07-2.63,1.94-4.13,2.59l.14-.07s-6.26,2.88-12.19,2.47c-.52-.04-1.05-.11-1.56-.2-.76-.15-1.48-.45-2.13-.86,0,0-.32-.36-.38,0,.02.26.17.49.39.62.94.63,2.04.97,3.16.99,1.89.16,3.79.05,5.65-.32,3.51-.6,6.88-1.81,9.97-3.57,1.8-1.1,2.88-2.14,3.39-3.03.12-.21.22-.43.3-.66,2.21-.65,4.35-1.51,6.38-2.59,1.08-.58,2.07-1.29,2.97-2.13.8-.73,1.42-1.63,1.81-2.64.27-.82.23-1.7-.1-2.5Zm-63.28,15.54c.79-.67,1.75-1.11,2.77-1.29,0,0,2.78-.66,3.85,1.11-3.76.45-6.16.81-6.16.81l-1.32.21c.25-.31.52-.59.83-.84h.03Zm-2.1,1.74c-.17.5-.2,1.04-.1,1.56,0,0,.09.44.27.54,0,0,.33.26.18-.44-.05-.62.08-1.24.38-1.79l1.02-.16s2.41-.44,7.25-1c.41,1.25.04,2.62-.93,3.5-1.19,1.11-2.65,1.89-4.24,2.27-3.72.92-5.39-1.05-5.39-1.05-.63-.85-1.06-1.83-1.26-2.87.88-.21,1.82-.39,2.81-.56Zm-8.52-8.52c.93-2.26,2-4.46,3.21-6.59,0,0,2.58-4.61,3.96-4.57,0,0,.66-.09.84,1.07.14,2.09-.4,4.18-1.55,5.93,0,0-2.16,3.6-5.46,4.5-.38-.06-.76-.06-1.13,0l.13-.33Zm-3.08,7.7s1.46-3.55,2.47-6.12l.19-.05s.82-.26,1.32-.47c0,0,1.15-.47,1.98,1.1,0,0,.55.86.4,3.07-.07,1.23,0,2.46.2,3.67-4.43,1.03-7.28,2.01-7.28,2.01l-1.01.34c.65-1.14,1.23-2.33,1.73-3.55Zm-3.17,4.75c-1.32,2.16-1.7,1.98-1.7,1.98-.26,0-.11-1.01-.11-1.01,0,0,0-.17.05-.26.65-.28,1.24-.55,1.76-.71Zm29.47-2.93c-5.51,3.32-11.33,6.1-17.38,8.29-13.11,4.57-19.44,3.3-19.44,3.3-2.53-.37-2.44-1.83-2.44-1.83-.16-1.04,1.32-2.27,1.32-2.27,1.68-1.33,3.52-2.44,5.49-3.3-.02.34-.02.69,0,1.03,0,0,.11.71.42.81,0,0,.66.39,1.98-1.28.55-.68,1.06-1.4,1.51-2.15.56-.2.9-.3.9-.3,2.63-.97,5.33-1.75,8.07-2.32.04.13.08.26.12.38,0,0,1.41,5.14,8.15,3.78,1.45-.23,2.84-.8,4.03-1.65,2.89-2.04,2.78-4.06,2.58-4.88,2.8-.32,6.32-.66,10.55-.98-3.35,1.87-5.86,3.38-5.86,3.38Zm31.64-7.01c-6.84,1.25-13.75,2.09-20.69,2.52l-1.6.11c2.3-1.32,4.67-2.54,6.64-3.4,0,0,8.36-3.91,15.59-4.15,0,0,6.12-.46,6.76,1.98.17.41.21.86.1,1.29-3.61,1.05-6.8,1.66-6.8,1.66h.01Z"/></svg>