<?xml version="1.0" encoding="UTF-8"?>
<svg id="Capa_1" xmlns="http://www.w3.org/2000/svg" version="1.1" viewBox="0 0 250 100">
  <!-- Generator: Adobe Illustrator 29.5.0, SVG Export Plug-In . SVG Version: 2.1.0 Build 137)  -->
  <defs>
    <style>
      .st0 {
        fill: #ce1316;
      }
    </style>
  </defs>
  <g>
    <path d="M19.3,43.7c1.9-2.6,4.5-3.9,8-3.9s6.4,1.3,8.9,4c2.4,2.6,3.6,6,3.6,10.1s-1.2,7.5-3.6,10.1c-2.4,2.6-5.4,3.9-8.8,3.9s-6.1-1.4-8.1-4.3v4h-8.4V31.2h8.4v12.5ZM29.5,58.9c1.2-1.2,1.8-2.8,1.8-5s-.6-3.8-1.8-5c-1.2-1.2-2.6-1.8-4.2-1.8s-3,.6-4.2,1.7c-1.2,1.2-1.8,2.8-1.8,5s.6,3.8,1.8,5c1.2,1.2,2.6,1.8,4.2,1.8s3-.6,4.2-1.7Z"/>
    <path d="M57.1,67.9c-4,0-7.3-1.3-9.8-3.9-2.6-2.6-3.8-6-3.8-10.2s1.3-7.6,3.8-10.2c2.5-2.5,5.8-3.8,9.9-3.8s7.4,1.2,10,3.7c2.7,2.5,4,5.9,4,10.4s0,1.8-.2,2.7h-18.9c.2,1.2.7,2.2,1.6,3,.9.8,1.9,1.2,3,1.2s1.9-.1,2.4-.3c.5-.2.9-.4,1.2-.6s.6-.6,1-1.1h9.1c-.8,2.8-2.4,5-4.7,6.7-2.4,1.7-5.2,2.5-8.4,2.5ZM60.7,48.2c-1-.8-2.1-1.2-3.5-1.2s-2.5.4-3.4,1.2c-.9.8-1.5,1.8-1.7,3.1h10.3c-.1-1.3-.7-2.3-1.7-3.1Z"/>
    <path d="M88.3,60.4h3v7.1h-4.3c-3.1,0-5.5-.7-7.1-2-1.7-1.4-2.5-3.7-2.5-7v-11.4h-2.6v-7h2.6v-6.7h8.4v6.7h5.5v7h-5.5v11.4c0,1.3.9,1.9,2.6,1.9Z"/>
    <path d="M108.9,60.4h3v7.1h-4.3c-3.1,0-5.5-.7-7.1-2-1.7-1.4-2.5-3.7-2.5-7v-11.4h-2.6v-7h2.6v-6.7h8.4v6.7h5.5v7h-5.5v11.4c0,1.3.9,1.9,2.6,1.9Z"/>
    <path d="M129.5,67.9c-4,0-7.3-1.3-9.8-3.9-2.6-2.6-3.8-6-3.8-10.2s1.3-7.6,3.8-10.2c2.5-2.5,5.8-3.8,9.9-3.8s7.4,1.2,10,3.7c2.7,2.5,4,5.9,4,10.4s0,1.8-.2,2.7h-18.9c.2,1.2.7,2.2,1.6,3,.9.8,1.9,1.2,3,1.2s1.9-.1,2.4-.3.9-.4,1.2-.6c.2-.2.6-.6,1-1.1h9.1c-.8,2.8-2.4,5-4.7,6.7-2.4,1.7-5.2,2.5-8.4,2.5ZM133.1,48.2c-1-.8-2.1-1.2-3.5-1.2s-2.5.4-3.4,1.2c-.9.8-1.5,1.8-1.7,3.1h10.3c-.1-1.3-.7-2.3-1.7-3.1Z"/>
    <path d="M157.5,40.1v5.1c2-3.6,4.6-5.4,7.9-5.4v8.5h-2.1c-1.9,0-3.4.5-4.3,1.4-1,.9-1.4,2.5-1.4,4.8v13h-8.4v-27.4h8.4Z"/>
    <path class="st0" d="M189.6,61.5h-12.9l-3.1,6.1h-8.8l18.6-34.5h9.7l6.4,34.5h-8.9l-1-6.1ZM188.6,55.1l-2-12.8-6.6,12.8h8.6Z"/>
    <path class="st0" d="M217.9,33.1l-6.1,34.5h-8.4l6.1-34.5h8.4Z"/>
  </g>
  <path class="st0" d="M246.2,33.3h-10v10.8h-7v-10.8h-10v-6.8h10v-10.8h7v10.8h10v6.8Z"/>
</svg>