<?xml version="1.0" encoding="UTF-8"?><svg id="Capa_2" xmlns="http://www.w3.org/2000/svg" viewBox="0 0 350 350"><defs><style>.cls-1{fill:#fff;}.cls-2{fill:#999;}</style></defs><g id="dummy-Act-Debate"><circle class="cls-1" cx="175" cy="175" r="175"/><path class="cls-2" d="M157.16,193.46l-10.41-10.41c1.32-1.82,2.23-3.68,2.73-5.58s.74-3.84.74-5.82-.25-3.92-.74-5.82-1.4-3.68-2.73-5.33l10.41-10.66c2.64,3.14,4.63,6.61,5.95,10.41s1.98,7.6,1.98,11.4-.66,7.56-1.98,11.28-3.3,7.23-5.95,10.53ZM178.22,214.77l-10.66-10.66c4.13-4.63,7.23-9.75,9.29-15.36s3.1-11.32,3.1-17.1-1.03-11.44-3.1-16.98c-2.07-5.53-5.16-10.61-9.29-15.24l10.66-10.66c5.62,6.11,9.79,12.85,12.51,20.2,2.73,7.35,4.09,14.91,4.09,22.68s-1.36,15.36-4.09,22.8c-2.73,7.43-6.9,14.21-12.51,20.32ZM105.61,181.57c-5.45,0-10.12-1.94-14-5.82-3.88-3.88-5.82-8.55-5.82-14s1.94-10.12,5.82-14c3.88-3.88,8.55-5.82,14-5.82s10.12,1.94,14,5.82c3.88,3.88,5.82,8.55,5.82,14s-1.94,10.12-5.82,14c-3.88,3.88-8.55,5.82-14,5.82ZM65.96,221.22v-5.7c0-3.97,1.07-7.6,3.22-10.9s5.12-5.78,8.92-7.43c4.3-1.82,8.71-3.22,13.26-4.21,4.54-.99,9.29-1.49,14.25-1.49s9.71.5,14.25,1.49c4.54.99,8.96,2.4,13.26,4.21,3.8,1.65,6.77,4.13,8.92,7.43s3.22,6.94,3.22,10.9v5.7h-79.3ZM244.39,181.57c-5.45,0-10.12-1.94-14-5.82-3.88-3.88-5.82-8.55-5.82-14s1.94-10.12,5.82-14,8.55-5.82,14-5.82,10.12,1.94,14,5.82,5.82,8.55,5.82,14-1.94,10.12-5.82,14c-3.88,3.88-8.55,5.82-14,5.82ZM204.74,221.22v-5.7c0-3.97,1.07-7.6,3.22-10.9s5.12-5.78,8.92-7.43c4.3-1.82,8.71-3.22,13.26-4.21,4.54-.99,9.29-1.49,14.25-1.49s9.71.5,14.25,1.49c4.54.99,8.96,2.4,13.26,4.21,3.8,1.65,6.77,4.13,8.92,7.43s3.22,6.94,3.22,10.9v5.7h-79.3Z"/></g></svg>